<?xml version="1.0" encoding="UTF-8"?>
<svg id="_ар_1" data-name="Шар 1" xmlns="http://www.w3.org/2000/svg" viewBox="0 0 1200 1200">
  <defs>
    <style>
      .cls-1 {
        fill: #fff;
      }

      .cls-2 {
        fill: #353535;
      }
    </style>
  </defs>
  <path class="cls-2" d="M600,0h0c331.37,0,600,268.63,600,600h0c0,331.37-268.63,600-600,600h0C268.63,1200,0,931.37,0,600H0C0,268.63,268.63,0,600,0Z"/>
  <path class="cls-1" d="M786.31,653.57l27.37,70.88,27.37,70.88,54.74,141.76h-81.63l-53.45-144.24-13.39-34.82-13.39-34.82-128.83-360.37,181.21,290.73Zm-381.27,219.18c-4.48,12.81-5.12,23.69-1.92,32.65,3.2,8.96,8.32,16.01,15.37,21.13,7.68,4.48,15.37,6.72,23.05,6.72h8.64v9.6h-193.04v-9.6h8.64c14.73,0,29.77-4.48,45.14-13.44,16.01-9.6,29.13-25.29,39.37-47.06h54.74Zm381.27-219.18l-181.21-290.73-154,269.3,266.75,64.29-248.35,12.69-30.13,76.95-60.26,153.9h-57.62l245.86-583.91s1.6-3.84,4.8-11.52c3.84-8.32,8-18.25,12.48-29.77,5.12-11.52,9.29-22.73,12.48-33.61,3.84-10.88,5.76-18.89,5.76-24.01l91.72,198.21,91.72,198.21Zm3.84,219.18h78.75c9.6,21.77,22.41,37.46,38.42,47.06,16.01,8.96,31.37,13.44,46.1,13.44h7.68v9.6h-216.09v-9.6h8.64c12.17,0,23.05-5.12,32.65-15.37,9.6-10.88,10.88-25.93,3.84-45.14Z"/>
</svg>