<?xml version="1.0" encoding="UTF-8"?>
<svg id="_Шар_1" data-name="Шар 1" xmlns="http://www.w3.org/2000/svg" viewBox="0 0 1200 1200">
  <defs>
    <style>
      .cls-1 {
        fill: #fff;
        fill-rule: evenodd;
      }

      .cls-2 {
        fill: #353535;
      }
    </style>
  </defs>
  <path class="cls-2" d="M600,0h0c331.37,0,600,268.63,600,600h0c0,331.37-268.63,600-600,600h0C268.63,1200,0,931.37,0,600H0C0,268.63,268.63,0,600,0Z"/>
  <path class="cls-1" d="M813.69,724.45l-27.37-70.88-91.72-198.21-91.72-198.21c0,5.12-1.92,13.13-5.76,24.01-3.2,10.89-7.36,22.09-12.49,33.61-4.48,11.52-8.64,21.45-12.48,29.77l-4.8,11.52-202.03,476.57,239.78-469.79,128.83,360.37,13.39,34.82,13.39,34.82,29.61,79.89h-.16c7.04,19.21,5.76,34.25-3.84,45.14-9.6,10.24-20.49,15.37-32.65,15.37h-8.64v9.6h216.09v-9.6h-7.68c-14.73,0-30.09-4.48-46.1-13.44-11.87-7.12-21.98-17.58-30.32-31.39l-35.95-93.09-27.37-70.88Zm-463.29,143.4c0-1.01-.26-.46,0,0l-3.34,11.41c-9.72,18.41-21.76,31.92-36.12,40.54-15.37,8.96-30.41,13.44-45.14,13.44h-8.64v9.6h193.04v-9.6h-8.64c-1,0-2.57,.09-4.58,.21-13.55,.78-47.43,2.74-65.13-13.65-11.68-10.81-16.33-28.23-19.34-39.52-.81-3.04-1.41-10.53-2.09-12.43Z"/>
</svg>