<svg width="40" height="40" viewBox="0 0 40 40" fill="none" xmlns="http://www.w3.org/2000/svg">
<rect x="0.5" y="0.5" width="39" height="39" rx="7.5" stroke="#8E8E8E"/>
<path d="M13.5 16C13.3674 16 13.2402 16.0527 13.1464 16.1464C13.0527 16.2402 13 16.3674 13 16.5C13 16.6326 13.0527 16.7598 13.1464 16.8536C13.2402 16.9473 13.3674 17 13.5 17H26.5C26.6326 17 26.7598 16.9473 26.8536 16.8536C26.9473 16.7598 27 16.6326 27 16.5C27 16.3674 26.9473 16.2402 26.8536 16.1464C26.7598 16.0527 26.6326 16 26.5 16H13.5ZM13.5 19C13.3674 19 13.2402 19.0527 13.1464 19.1464C13.0527 19.2402 13 19.3674 13 19.5C13 19.6326 13.0527 19.7598 13.1464 19.8536C13.2402 19.9473 13.3674 20 13.5 20H26.5C26.6326 20 26.7598 19.9473 26.8536 19.8536C26.9473 19.7598 27 19.6326 27 19.5C27 19.3674 26.9473 19.2402 26.8536 19.1464C26.7598 19.0527 26.6326 19 26.5 19H13.5ZM13 22.5C13 22.3674 13.0527 22.2402 13.1464 22.1464C13.2402 22.0527 13.3674 22 13.5 22H26.5C26.6326 22 26.7598 22.0527 26.8536 22.1464C26.9473 22.2402 27 22.3674 27 22.5C27 22.6326 26.9473 22.7598 26.8536 22.8536C26.7598 22.9473 26.6326 23 26.5 23H13.5C13.3674 23 13.2402 22.9473 13.1464 22.8536C13.0527 22.7598 13 22.6326 13 22.5ZM13.5 25C13.3674 25 13.2402 25.0527 13.1464 25.1464C13.0527 25.2402 13 25.3674 13 25.5C13 25.6326 13.0527 25.7598 13.1464 25.8536C13.2402 25.9473 13.3674 26 13.5 26H21.5C21.6326 26 21.7598 25.9473 21.8536 25.8536C21.9473 25.7598 22 25.6326 22 25.5C22 25.3674 21.9473 25.2402 21.8536 25.1464C21.7598 25.0527 21.6326 25 21.5 25H13.5Z" fill="#8E8E8E"/>
<path d="M8 8C8 7.20435 8.31607 6.44129 8.87868 5.87868C9.44129 5.31607 10.2044 5 11 5H24.05C24.3152 5.00006 24.5695 5.10545 24.757 5.293L31.707 12.243C31.8946 12.4305 31.9999 12.6848 32 12.95V32C32 32.7956 31.6839 33.5587 31.1213 34.1213C30.5587 34.6839 29.7956 35 29 35H11C10.2044 35 9.44129 34.6839 8.87868 34.1213C8.31607 33.5587 8 32.7956 8 32V8ZM11 7C10.7348 7 10.4804 7.10536 10.2929 7.29289C10.1054 7.48043 10 7.73478 10 8V32C10 32.2652 10.1054 32.5196 10.2929 32.7071C10.4804 32.8946 10.7348 33 11 33H29C29.2652 33 29.5196 32.8946 29.7071 32.7071C29.8946 32.5196 30 32.2652 30 32V13.364L29.636 13H24.993C24.7288 12.9989 24.4757 12.893 24.2895 12.7055C24.1033 12.518 23.9992 12.2642 24 12V7.364L23.636 7H11Z" fill="#8E8E8E"/>
</svg>
