<?xml version="1.0" encoding="UTF-8"?>
<svg width="560" height="560" viewBox="0 0 560 560" fill="none" xmlns="http://www.w3.org/2000/svg">
<circle cx="280" cy="280" r="280" fill="#353535"/>
<g transform="translate(280 280) scale(0.85) translate(-280 -280)">
<path d="M179.317 311.25L163.765 352.598L148.212 393.944L117.108 476.639H163.492L193.864 392.5L201.474 372.188L209.084 351.875L333.888 342.5L179.317 311.25ZM395.961 439.104C398.508 446.574 398.873 452.923 397.053 458.151C395.234 463.38 392.324 467.489 388.322 470.476C383.956 473.09 379.591 474.397 375.225 474.397H370.314V480H480V474.397C480 474.397 479.09 474.397 477.271 474.397C475.816 474.397 475.088 474.397 475.088 474.397C466.721 474.397 458.172 471.784 449.441 466.555C440.345 460.953 432.887 451.802 427.067 439.104H395.961ZM179.317 311.25L282.285 141.66L290.846 164.104L307.966 208.991L342.21 298.768L410.695 478.319H443.438L303.738 137.702C303.738 137.702 302.828 135.462 301.009 130.98C298.826 126.125 296.461 120.336 293.915 113.614C291.005 106.891 288.639 100.355 286.822 94.005C284.638 87.6563 283.546 82.9875 283.546 80L231.432 195.625L179.317 311.25ZM177.135 439.104H132.387C126.93 451.802 119.654 460.953 110.559 466.555C101.464 471.784 92.7325 474.397 84.3651 474.397C84.3651 474.397 83.637 474.397 82.182 474.397C80.727 474.397 80 474.397 80 474.397V480H202.783V474.397H197.871C190.959 474.397 184.775 471.41 179.317 465.434C173.86 459.085 173.133 450.307 177.135 439.104Z" fill="white"/>
</g>
</svg>