<svg width="17" height="14" viewBox="0 0 17 14" fill="none" xmlns="http://www.w3.org/2000/svg">
<path d="M2.76352 10.2206C2.86776 10.1158 3.00783 10.0569 3.15442 10.0569H16.722C16.9695 10.0569 17.0933 10.3581 16.9174 10.5316L14.2365 13.2258C14.1322 13.3306 13.9922 13.3895 13.8456 13.3895H0.278033C0.030462 13.3895 -0.0933235 13.0883 0.0825823 12.9148L2.76352 10.2206Z" fill="white"/>
<path d="M2.76352 0.163685C2.86776 0.0589267 3.00783 0 3.15442 0H16.722C16.9695 0 17.0933 0.301181 16.9174 0.474687L14.2365 3.16567C14.1322 3.27043 13.9922 3.32936 13.8456 3.32936H0.278033C0.030462 3.32936 -0.0933235 3.02818 0.0825823 2.85467L2.76352 0.163685Z" fill="white"/>
<path d="M14.2365 5.15929C14.1322 5.05453 13.9922 4.99561 13.8456 4.99561H0.278033C0.030462 4.99561 -0.0933235 5.29679 0.0825823 5.47029L2.76352 8.16128C2.86776 8.26604 3.00783 8.32496 3.15442 8.32496H16.722C16.9695 8.32496 17.0933 8.02378 16.9174 7.85028L14.2365 5.15929Z" fill="white"/>
</svg>
