<svg width="40" height="40" viewBox="0 0 40 40" fill="none" xmlns="http://www.w3.org/2000/svg">
<rect x="0.5" y="0.5" width="39" height="39" rx="7.5" stroke="#F6F930"/>
<path d="M19.9993 30.6663V11.9997M19.9993 11.9997C19.9993 11.2924 20.2803 10.6142 20.7804 10.1141C21.2805 9.61396 21.9588 9.33301 22.666 9.33301H32.5327C32.6377 9.33301 32.7418 9.3537 32.8388 9.3939C32.9359 9.43411 33.0241 9.49304 33.0984 9.56732C33.1727 9.64161 33.2316 9.7298 33.2718 9.82686C33.312 9.92392 33.3327 10.028 33.3327 10.133V27.6183M19.9993 11.9997C19.9993 11.2924 19.7184 10.6142 19.2183 10.1141C18.7182 9.61396 18.0399 9.33301 17.3327 9.33301H7.46602C7.25384 9.33301 7.05036 9.41729 6.90033 9.56732C6.7503 9.71735 6.66602 9.92083 6.66602 10.133V27.6183M22.666 27.9997H33.3327M17.3327 27.9997H6.66602" stroke="#F6F930" stroke-width="1.5" stroke-linecap="round"/>
<path d="M22.6654 28C21.9581 28 21.2798 28.281 20.7797 28.781C20.2797 29.2811 19.9987 29.9594 19.9987 30.6667C19.9987 29.9594 19.7177 29.2811 19.2176 28.781C18.7176 28.281 18.0393 28 17.332 28" stroke="#F6F930" stroke-width="1.5" stroke-linecap="round" stroke-linejoin="round"/>
</svg>
